<svg version="1.1" id="Layer_1" xmlns="http://www.w3.org/2000/svg" xmlns:xlink="http://www.w3.org/1999/xlink" x="0px" y="0px"
	 width="100%" viewBox="0 0 2263 1526" enable-background="new 0 0 2263 1526" xml:space="preserve">
<path fill="#FFFFFF" opacity="1.000000" stroke="none" 
	d="
M1296.000000,1527.000000 
	C864.000000,1527.000000 432.500000,1527.000000 1.000000,1527.000000 
	C1.000000,1018.333313 1.000000,509.666656 1.000000,1.000000 
	C755.333313,1.000000 1509.666626,1.000000 2264.000000,1.000000 
	C2264.000000,509.666656 2264.000000,1018.333313 2264.000000,1527.000000 
	C1941.500000,1527.000000 1619.000000,1527.000000 1296.000000,1527.000000 
M803.021851,620.529236 
	C809.296875,626.134033 815.842468,631.467407 821.791016,637.399597 
	C834.426331,650.000305 847.415955,662.343933 858.990112,675.879211 
	C868.070007,686.497559 869.517029,683.544434 858.484924,694.808716 
	C846.549988,706.994873 833.791870,718.374634 821.393066,730.106445 
	C808.938049,741.891479 796.476379,753.669495 784.030396,765.464050 
	C771.036133,777.778198 758.073730,790.125977 745.059875,802.419250 
	C741.822510,805.477356 738.688293,808.730713 735.081604,811.296753 
	C720.479797,821.685730 705.531372,831.460999 689.175049,839.052856 
	C660.499756,852.362671 630.224854,859.265564 598.911255,860.700989 
	C583.196838,861.421387 567.317139,859.284058 551.552368,857.961121 
	C533.611389,856.455566 516.392883,851.438538 499.294983,846.073059 
	C474.453857,838.277771 451.080139,827.165649 428.780823,813.875793 
	C408.647491,801.876770 389.588318,788.175720 372.718628,771.914368 
	C359.401978,759.077942 347.057861,745.178040 334.884399,731.224731 
	C321.316925,715.673706 310.686523,698.020569 301.024170,679.849060 
	C288.278687,655.879211 278.599670,630.616272 273.292542,604.022766 
	C269.747650,586.259583 267.438293,568.124512 266.300507,550.047302 
	C265.444458,536.446594 266.594147,522.587769 268.182312,508.999451 
	C270.033936,493.157227 272.629761,477.324646 276.153290,461.771210 
	C283.476837,429.443726 296.156982,399.085693 313.704468,371.016968 
	C330.404846,344.303162 349.937805,319.716797 374.242798,299.363647 
	C385.907257,289.595734 397.769775,280.006409 410.088257,271.090057 
	C431.915924,255.290894 456.870087,245.449173 481.462646,234.987473 
	C485.726685,233.173523 489.905609,231.159546 494.123871,229.237961 
	C487.407013,227.835739 481.169678,227.128708 474.927460,227.082321 
	C468.831604,227.037033 462.702057,227.399673 456.637848,228.052750 
	C442.313599,229.595337 427.834930,230.498856 413.753418,233.327225 
	C388.588806,238.381714 363.852142,245.228973 339.621918,253.906677 
	C312.426483,263.646362 285.999023,274.820709 261.206360,289.860168 
	C232.445663,307.306671 204.637756,325.809052 181.625580,350.766113 
	C170.008667,363.364838 160.105392,377.083008 151.986832,392.124359 
	C142.246124,410.171112 136.427307,429.552490 131.661087,449.430908 
	C125.838982,473.713196 122.438362,498.348816 121.277336,523.143494 
	C120.276726,544.512329 121.000198,566.030212 122.198692,587.412842 
	C123.215042,605.545715 125.288330,623.695435 128.211090,641.622925 
	C130.900970,658.122070 134.900131,674.451355 139.123169,690.646729 
	C145.365662,714.586670 153.569366,737.923340 164.142227,760.306091 
	C175.310516,783.949219 188.674820,806.315491 203.805878,827.715515 
	C220.675049,851.573853 238.294708,874.683105 260.977936,893.362915 
	C273.348206,903.549927 285.777008,913.772522 298.961609,922.841980 
	C327.624298,942.558594 357.773163,959.853455 390.098846,972.864868 
	C409.361053,980.618103 428.916382,987.909668 448.836700,993.699707 
	C479.944214,1002.741272 511.935486,1008.081787 544.275146,1009.736145 
	C564.802551,1010.786255 585.484680,1009.870239 606.046631,1008.830933 
	C621.074402,1008.071350 636.154663,1006.437317 650.966614,1003.811584 
	C668.706726,1000.666687 686.387695,996.771423 703.733459,991.912781 
	C732.807495,983.769165 760.620667,972.215271 786.991943,957.435608 
	C802.336487,948.835876 818.241028,940.898926 832.410095,930.618896 
	C852.540771,916.013428 871.472473,899.725464 890.594482,883.770447 
	C902.864685,873.532349 914.733948,862.792542 926.460938,851.930054 
	C940.937622,838.520691 955.128235,824.800354 969.327881,811.095642 
	C972.268311,808.257751 974.706116,804.899170 977.486694,801.650879 
	C979.094421,802.608704 980.481812,803.181030 981.553162,804.115723 
	C987.639954,809.425415 993.914612,814.556885 999.631836,820.245117 
	C1010.582214,831.140076 1021.262695,842.309448 1031.941284,853.473816 
	C1043.509521,865.568298 1054.762939,877.968384 1066.485962,889.909058 
	C1084.159912,907.911072 1102.000366,925.754822 1120.044800,943.384766 
	C1124.763428,947.995056 1130.497314,951.566467 1135.058838,955.072327 
	C1144.970825,943.892883 1153.843140,933.074707 1163.568481,923.087341 
	C1183.332275,902.791016 1203.666016,883.050659 1223.523560,862.844116 
	C1229.260498,857.006531 1234.338135,850.485901 1239.327881,843.979187 
	C1240.308594,842.700378 1240.317749,839.440247 1239.358887,838.131042 
	C1235.774658,833.237488 1231.894897,828.480774 1227.598267,824.202881 
	C1211.645264,808.319641 1195.386841,792.743103 1179.432983,776.860596 
	C1169.430542,766.902954 1159.768188,756.603638 1149.951538,746.459167 
	C1139.787476,735.955383 1129.622803,725.451965 1119.455566,714.951233 
	C1109.288208,704.450623 1099.155151,693.916443 1088.939331,683.463135 
	C1071.851562,665.978088 1054.682495,648.572449 1037.606812,631.075439 
	C1032.170288,625.504700 1026.932495,619.740356 1021.585388,614.081848 
	C1004.286072,595.775024 987.125793,577.333191 969.599854,559.245728 
	C962.718994,552.144470 954.701599,546.150146 947.751526,539.109070 
	C936.231262,527.438049 925.114319,515.366760 913.903564,503.392822 
	C900.445923,489.018890 887.205688,474.438812 873.609131,460.198303 
	C863.829407,449.955261 853.835571,439.893463 843.526123,430.187561 
	C836.793762,423.849426 829.325439,418.292969 821.997864,412.230042 
	C817.322876,417.737549 813.529968,422.733765 809.203430,427.214752 
	C785.773560,451.481293 762.149170,475.560059 738.729553,499.836426 
	C730.596008,508.267456 722.857178,517.079285 714.504883,526.189697 
	C722.829773,535.460144 730.973389,544.710327 739.322998,553.770569 
	C746.291260,561.331970 753.501648,568.670044 760.603516,576.108337 
	C774.576843,590.743591 788.549133,605.379761 803.021851,620.529236 
z"/>
<path fill="#ADFF00" opacity="1.000000" stroke="none" 
	d="
M802.771851,620.272461 
	C788.549133,605.379761 774.576843,590.743591 760.603516,576.108337 
	C753.501648,568.670044 746.291260,561.331970 739.322998,553.770569 
	C730.973389,544.710327 722.829773,535.460144 714.504883,526.189697 
	C722.857178,517.079285 730.596008,508.267456 738.729553,499.836426 
	C762.149170,475.560059 785.773560,451.481293 809.203430,427.214752 
	C813.529968,422.733765 817.322876,417.737549 821.997864,412.230042 
	C829.325439,418.292969 836.793762,423.849426 843.526123,430.187561 
	C853.835571,439.893463 863.829407,449.955261 873.609131,460.198303 
	C887.205688,474.438812 900.445923,489.018890 913.903564,503.392822 
	C925.114319,515.366760 936.231262,527.438049 947.751526,539.109070 
	C954.701599,546.150146 962.718994,552.144470 969.599854,559.245728 
	C987.125793,577.333191 1004.286072,595.775024 1021.585388,614.081848 
	C1026.932495,619.740356 1032.170288,625.504700 1037.606812,631.075439 
	C1054.682495,648.572449 1071.851562,665.978088 1088.939331,683.463135 
	C1099.155151,693.916443 1109.288208,704.450623 1119.455566,714.951233 
	C1129.622803,725.451965 1139.787476,735.955383 1149.951538,746.459167 
	C1159.768188,756.603638 1169.430542,766.902954 1179.432983,776.860596 
	C1195.386841,792.743103 1211.645264,808.319641 1227.598267,824.202881 
	C1231.894897,828.480774 1235.774658,833.237488 1239.358887,838.131042 
	C1240.317749,839.440247 1240.308594,842.700378 1239.327881,843.979187 
	C1234.338135,850.485901 1229.260498,857.006531 1223.523560,862.844116 
	C1203.666016,883.050659 1183.332275,902.791016 1163.568481,923.087341 
	C1153.843140,933.074707 1144.970825,943.892883 1135.058838,955.072327 
	C1130.497314,951.566467 1124.763428,947.995056 1120.044800,943.384766 
	C1102.000366,925.754822 1084.159912,907.911072 1066.485962,889.909058 
	C1054.762939,877.968384 1043.509521,865.568298 1031.941284,853.473816 
	C1021.262695,842.309448 1010.582214,831.140076 999.631836,820.245117 
	C993.914612,814.556885 987.639954,809.425415 981.553162,804.115723 
	C980.481812,803.181030 979.094421,802.608704 977.486694,801.650879 
	C974.706116,804.899170 972.268311,808.257751 969.327881,811.095642 
	C955.128235,824.800354 940.937622,838.520691 926.460938,851.930054 
	C914.733948,862.792542 902.864685,873.532349 890.594482,883.770447 
	C871.472473,899.725464 852.540771,916.013428 832.410095,930.618896 
	C818.241028,940.898926 802.336487,948.835876 786.991943,957.435608 
	C760.620667,972.215271 732.807495,983.769165 703.733459,991.912781 
	C686.387695,996.771423 668.706726,1000.666687 650.966614,1003.811584 
	C636.154663,1006.437317 621.074402,1008.071350 606.046631,1008.830933 
	C585.484680,1009.870239 564.802551,1010.786255 544.275146,1009.736145 
	C511.935486,1008.081787 479.944214,1002.741272 448.836700,993.699707 
	C428.916382,987.909668 409.361053,980.618103 390.098846,972.864868 
	C357.773163,959.853455 327.624298,942.558594 298.961609,922.841980 
	C285.777008,913.772522 273.348206,903.549927 260.977936,893.362915 
	C238.294708,874.683105 220.675049,851.573853 203.805878,827.715515 
	C188.674820,806.315491 175.310516,783.949219 164.142227,760.306091 
	C153.569366,737.923340 145.365662,714.586670 139.123169,690.646729 
	C134.900131,674.451355 130.900970,658.122070 128.211090,641.622925 
	C125.288330,623.695435 123.215042,605.545715 122.198692,587.412842 
	C121.000198,566.030212 120.276726,544.512329 121.277336,523.143494 
	C122.438362,498.348816 125.838982,473.713196 131.661087,449.430908 
	C136.427307,429.552490 142.246124,410.171112 151.986832,392.124359 
	C160.105392,377.083008 170.008667,363.364838 181.625580,350.766113 
	C204.637756,325.809052 232.445663,307.306671 261.206360,289.860168 
	C285.999023,274.820709 312.426483,263.646362 339.621918,253.906677 
	C363.852142,245.228973 388.588806,238.381714 413.753418,233.327225 
	C427.834930,230.498856 442.313599,229.595337 456.637848,228.052750 
	C462.702057,227.399673 468.831604,227.037033 474.927460,227.082321 
	C481.169678,227.128708 487.407013,227.835739 494.123871,229.237961 
	C489.905609,231.159546 485.726685,233.173523 481.462646,234.987473 
	C456.870087,245.449173 431.915924,255.290894 410.088257,271.090057 
	C397.769775,280.006409 385.907257,289.595734 374.242798,299.363647 
	C349.937805,319.716797 330.404846,344.303162 313.704468,371.016968 
	C296.156982,399.085693 283.476837,429.443726 276.153290,461.771210 
	C272.629761,477.324646 270.033936,493.157227 268.182312,508.999451 
	C266.594147,522.587769 265.444458,536.446594 266.300507,550.047302 
	C267.438293,568.124512 269.747650,586.259583 273.292542,604.022766 
	C278.599670,630.616272 288.278687,655.879211 301.024170,679.849060 
	C310.686523,698.020569 321.316925,715.673706 334.884399,731.224731 
	C347.057861,745.178040 359.401978,759.077942 372.718628,771.914368 
	C389.588318,788.175720 408.647491,801.876770 428.780823,813.875793 
	C451.080139,827.165649 474.453857,838.277771 499.294983,846.073059 
	C516.392883,851.438538 533.611389,856.455566 551.552368,857.961121 
	C567.317139,859.284058 583.196838,861.421387 598.911255,860.700989 
	C630.224854,859.265564 660.499756,852.362671 689.175049,839.052856 
	C705.531372,831.460999 720.479797,821.685730 735.081604,811.296753 
	C738.688293,808.730713 741.822510,805.477356 745.059875,802.419250 
	C758.073730,790.125977 771.036133,777.778198 784.030396,765.464050 
	C796.476379,753.669495 808.938049,741.891479 821.393066,730.106445 
	C833.791870,718.374634 846.549988,706.994873 858.484924,694.808716 
	C869.517029,683.544434 868.070007,686.497559 858.990112,675.879211 
	C847.415955,662.343933 834.426331,650.000305 821.791016,637.399597 
	C815.842468,631.467407 809.296875,626.134033 802.771851,620.272461 
z"/>
</svg>